<svg xmlns="http://www.w3.org/2000/svg" width="36px" height="36px">
		<path fill-rule="evenodd" opacity="0.6" fill="rgb(68, 34, 75)"
			d="M26.387,23.209 L24.718,23.209 L24.127,22.639 C26.661,19.686 27.971,15.657 27.253,11.374 C26.260,5.509 21.360,0.826 15.447,0.109 C6.514,-0.989 -1.004,6.522 0.094,15.445 C0.812,21.352 5.500,26.247 11.371,27.238 C15.658,27.955 19.692,26.647 22.649,24.116 L23.219,24.707 L23.219,26.373 L32.194,35.339 C33.060,36.204 34.475,36.204 35.341,35.339 C36.207,34.474 36.207,33.060 35.341,32.196 L26.387,23.209 ZM13.715,23.209 C8.457,23.209 4.212,18.969 4.212,13.715 C4.212,8.463 8.457,4.222 13.715,4.222 C18.974,4.222 23.219,8.463 23.219,13.715 C23.219,18.969 18.974,23.209 13.715,23.209 Z" />
</svg>